<svg aria-hidden="true" style="position: absolute; width: 0; height: 0; overflow: hidden;" version="1.1" xmlns="http://www.w3.org/2000/svg" xmlns:xlink="http://www.w3.org/1999/xlink">
<defs>
<symbol id="icon-close" viewBox="0 0 32 32">
<path d="M18.83 16l12.584-12.584c0.782-0.781 0.782-2.049 0-2.83s-2.048-0.782-2.83 0l-12.584 12.584-12.584-12.584c-0.782-0.782-2.048-0.782-2.83 0s-0.782 2.049 0 2.83l12.584 12.584-12.584 12.584c-0.782 0.781-0.782 2.049 0 2.83 0.391 0.39 0.903 0.586 1.415 0.586s1.024-0.195 1.415-0.586l12.584-12.584 12.584 12.584c0.391 0.391 0.903 0.586 1.415 0.586s1.024-0.195 1.415-0.586c0.782-0.781 0.782-2.049 0-2.83l-12.584-12.583z"></path>
</symbol>
</defs>
</svg>
