<svg aria-hidden="true" style="position: absolute; width: 0; height: 0; overflow: hidden;" version="1.1" xmlns="http://www.w3.org/2000/svg" xmlns:xlink="http://www.w3.org/1999/xlink">
<defs>
<symbol id="icon-instagram" viewBox="0 0 32 32">
<path d="M16 0c-4.349 0-4.891 0.021-6.593 0.093-1.709 0.084-2.865 0.349-3.885 0.745-1.052 0.412-1.948 0.959-2.833 1.849-0.891 0.885-1.443 1.781-1.849 2.833-0.396 1.020-0.661 2.176-0.745 3.885-0.077 1.703-0.093 2.244-0.093 6.593s0.021 4.891 0.093 6.593c0.084 1.704 0.349 2.865 0.745 3.885 0.412 1.052 0.959 1.948 1.849 2.833 0.885 0.891 1.781 1.443 2.833 1.849 1.020 0.391 2.181 0.661 3.885 0.745 1.703 0.077 2.244 0.093 6.593 0.093s4.891-0.021 6.593-0.093c1.704-0.084 2.865-0.355 3.885-0.745 1.052-0.412 1.948-0.959 2.833-1.849 0.891-0.885 1.443-1.776 1.849-2.833 0.391-1.020 0.661-2.181 0.745-3.885 0.077-1.703 0.093-2.244 0.093-6.593s-0.021-4.891-0.093-6.593c-0.084-1.704-0.355-2.871-0.745-3.885-0.412-1.052-0.959-1.948-1.849-2.833-0.885-0.891-1.776-1.443-2.833-1.849-1.020-0.396-2.181-0.661-3.885-0.745-1.703-0.077-2.244-0.093-6.593-0.093zM16 2.88c4.271 0 4.781 0.021 6.469 0.093 1.557 0.073 2.405 0.333 2.968 0.553 0.751 0.291 1.276 0.635 1.844 1.197 0.557 0.557 0.901 1.088 1.192 1.839 0.22 0.563 0.48 1.411 0.553 2.968 0.072 1.688 0.093 2.199 0.093 6.469s-0.021 4.781-0.099 6.469c-0.084 1.557-0.344 2.405-0.563 2.968-0.303 0.751-0.641 1.276-1.199 1.844-0.563 0.557-1.099 0.901-1.844 1.192-0.556 0.22-1.416 0.48-2.979 0.553-1.697 0.072-2.197 0.093-6.479 0.093s-4.781-0.021-6.48-0.099c-1.557-0.084-2.416-0.344-2.979-0.563-0.76-0.303-1.281-0.641-1.839-1.199-0.563-0.563-0.921-1.099-1.197-1.844-0.224-0.556-0.48-1.416-0.563-2.979-0.057-1.677-0.084-2.197-0.084-6.459 0-4.26 0.027-4.781 0.084-6.479 0.083-1.563 0.339-2.421 0.563-2.979 0.276-0.761 0.635-1.281 1.197-1.844 0.557-0.557 1.079-0.917 1.839-1.199 0.563-0.219 1.401-0.479 2.964-0.557 1.697-0.061 2.197-0.083 6.473-0.083zM16 7.787c-4.541 0-8.213 3.677-8.213 8.213 0 4.541 3.677 8.213 8.213 8.213 4.541 0 8.213-3.677 8.213-8.213 0-4.541-3.677-8.213-8.213-8.213zM16 21.333c-2.948 0-5.333-2.385-5.333-5.333s2.385-5.333 5.333-5.333c2.948 0 5.333 2.385 5.333 5.333s-2.385 5.333-5.333 5.333zM26.464 7.459c0 1.063-0.865 1.921-1.923 1.921-1.063 0-1.921-0.859-1.921-1.921 0-1.057 0.864-1.917 1.921-1.917s1.923 0.86 1.923 1.917z"></path>
</symbol>
<symbol id="icon-facebook" viewBox="0 0 32 32">
<path d="M29.456 0.731h-26.909c-1.409 0-2.547 1.137-2.547 2.544v25.451c0 1.402 1.138 2.543 2.547 2.543h26.909c1.402 0 2.544-1.139 2.544-2.543v-25.451c-0.001-1.407-1.143-2.544-2.544-2.544zM21.51 9.798c-0.662-0.387-1.186-0.693-1.846-0.693-0.646 0-1.197 0.161-1.479 0.433-0.282 0.269-0.422 0.791-0.422 1.562v1.14h3.451l-0.747 3.172h-2.704v10.541h-4.335v-10.541h-2.023v-3.172h2.025v-1.211c0-1.275 0.153-2.038 0.454-2.668 0.3-0.627 0.883-1.326 1.693-1.722 0.809-0.394 2.006-0.593 3.245-0.593 1.27 0 2.262 0.423 3.478 0.764l-0.79 2.987z"></path>
</symbol>
<symbol id="icon-vk" viewBox="0 0 32 32">
<path d="M20.097 2.667h-8.181c-7.472 0-9.25 1.778-9.25 9.236v8.181c0 7.472 1.764 9.25 9.236 9.25h8.181c7.472 0 9.25-1.764 9.25-9.236v-8.181c0-7.472-1.764-9.25-9.236-9.25zM24.194 21.694h-1.944c-0.736 0-0.958-0.597-2.278-1.917-1.153-1.111-1.639-1.25-1.931-1.25-0.403 0-0.514 0.111-0.514 0.667v1.75c0 0.472-0.153 0.75-1.389 0.75-2.504-0.173-4.657-1.537-5.912-3.524l-0.018-0.031c-1.454-1.798-2.524-3.967-3.050-6.341l-0.019-0.103c0-0.292 0.111-0.556 0.667-0.556h1.944c0.5 0 0.681 0.222 0.875 0.736 0.944 2.778 2.556 5.194 3.208 5.194 0.25 0 0.361-0.111 0.361-0.736v-2.861c-0.083-1.306-0.778-1.417-0.778-1.889 0.019-0.25 0.226-0.445 0.479-0.445 0.007 0 0.015 0 0.022 0.001l-0.001-0h3.056c0.417 0 0.555 0.208 0.555 0.708v3.861c0 0.417 0.181 0.555 0.306 0.555 0.25 0 0.444-0.139 0.903-0.597 0.943-1.143 1.745-2.453 2.349-3.868l0.040-0.104c0.119-0.328 0.427-0.558 0.789-0.558 0.020 0 0.041 0.001 0.061 0.002l-0.003-0h1.944c0.583 0 0.708 0.292 0.583 0.708-0.773 1.714-1.646 3.188-2.657 4.551l0.046-0.065c-0.208 0.319-0.292 0.486 0 0.861 0.194 0.292 0.875 0.861 1.333 1.403 0.65 0.649 1.198 1.4 1.616 2.228l0.023 0.049c0.167 0.542-0.111 0.819-0.667 0.819z"></path>
</symbol>
<symbol id="icon-people" viewBox="0 0 32 32">
<path stroke-linejoin="round" stroke-linecap="round" stroke-miterlimit="4" stroke-width="2.6667" d="M1.333 24c0-3 4-3 6-5 1-1-2-1-2-6 0-3.333 1.333-5 4-5s4 1.667 4 5c0 5-3 5-2 6 2 2 6 2 6 5M17.056 20.969c0.656-0.238 1.194-0.458 1.614-0.66 0.734-0.354 1.443-0.754 1.997-1.309 1-1-2-1-2-6 0-3.333 1.333-5 4-5s4 1.667 4 5c0 5-3 5-2 6 2 2 6 2 6 5"></path>
<path stroke-linejoin="round" stroke-linecap="round" stroke-miterlimit="4" stroke-width="2.6667" d="M16 21.333c0.488-0.165 0.84-0.286 1.056-0.364"></path>
</symbol>
<symbol id="icon-menu" viewBox="0 0 32 32">
<path d="M1 7h30c0.552 0 1-0.448 1-1s-0.448-1-1-1h-30c-0.552 0-1 0.448-1 1s0.448 1 1 1z"></path>
<path d="M31 15h-30c-0.552 0-1 0.448-1 1s0.448 1 1 1h30c0.552 0 1-0.448 1-1s-0.448-1-1-1z"></path>
<path d="M31 25h-30c-0.552 0-1 0.448-1 1s0.448 1 1 1h30c0.552 0 1-0.448 1-1s-0.448-1-1-1z"></path>
</symbol>
</defs>
</svg>
