<svg aria-hidden="true" style="position: absolute; width: 0; height: 0; overflow: hidden;" version="1.1" xmlns="http://www.w3.org/2000/svg" xmlns:xlink="http://www.w3.org/1999/xlink">
<defs>
<symbol id="icon-monitor" viewBox="0 0 32 32">
<path d="M30.132 5.889h-28.263c-0.188 0-0.34 0.152-0.34 0.34v17.222c0 0.188 0.152 0.34 0.34 0.34h28.263c0.188 0 0.34-0.152 0.34-0.34v-17.222c0-0.188-0.152-0.34-0.34-0.34zM29.792 23.111h-27.584v-16.543h27.584v16.543z"></path>
<path d="M30.509 4.36h-29.018c-0.822 0-1.491 0.669-1.491 1.491v17.977c0 0.822 0.669 1.491 1.491 1.491h10.079l-0.537 1.301h-2.159c-0.281 0-0.51 0.228-0.51 0.51s0.228 0.51 0.51 0.51h14.253c0.281 0 0.51-0.228 0.51-0.51s-0.228-0.51-0.51-0.51h-2.159l-0.537-1.301h10.079c0.822 0 1.491-0.669 1.491-1.491v-17.977c-0-0.822-0.669-1.491-1.491-1.491zM19.865 26.621h-7.731l0.537-1.301h6.656l0.537 1.301zM30.981 23.828c0 0.26-0.212 0.472-0.472 0.472h-29.018c-0.26 0-0.472-0.212-0.472-0.472v-17.977c0-0.26 0.212-0.472 0.472-0.472h29.018c0.26 0 0.472 0.212 0.472 0.472v17.977z"></path>
</symbol>
<symbol id="icon-dumbbell-gym" viewBox="0 0 32 32">
<path d="M28.852 9.705c-0.806 0-1.443 0.304-2.098 0.803v-0.804c0-1.735-1.412-3.147-3.148-3.147s-3.148 1.412-3.148 3.147v3.707h-8.918v-3.707c0-1.735-1.412-3.147-3.148-3.147s-3.148 1.412-3.148 3.147v0.804c-0.525-0.499-1.293-0.803-2.098-0.803-1.736 0-3.147 1.41-3.147 3.143v6.303c0 1.733 1.412 3.143 3.148 3.143 0.806 0 1.574-0.304 2.098-0.803v0.804c0 1.735 1.412 3.146 3.148 3.146s3.148-1.411 3.148-3.146v-3.639h8.918v3.639c0 1.735 1.412 3.146 3.148 3.146s3.148-1.411 3.148-3.146v-0.804c0.656 0.499 1.293 0.803 2.098 0.803 1.736 0 3.148-1.41 3.148-3.143v-6.303c-0-1.733-1.412-3.143-3.148-3.143zM5.246 19.152c0 1.155-0.941 2.094-2.098 2.094s-2.098-0.94-2.098-2.094v-6.303c0-1.155 0.941-2.094 2.098-2.094s2.098 0.94 2.098 2.094v6.303zM10.492 13.902v8.395c0 1.156-0.941 2.097-2.098 2.097s-2.098-0.941-2.098-2.097v-12.592c0-1.157 0.941-2.098 2.098-2.098s2.098 0.941 2.098 2.098v4.197zM20.459 17.608h-8.918v-3.148h8.918v3.148zM25.705 12.848v9.448c0 1.156-0.941 2.097-2.098 2.097s-2.098-0.941-2.098-2.097v-12.592c0-1.157 0.941-2.098 2.098-2.098s2.098 0.941 2.098 2.098v3.144zM30.951 19.152c0 1.155-0.941 2.094-2.098 2.094s-2.098-0.94-2.098-2.094v-6.303c0-1.155 0.941-2.094 2.098-2.094s2.098 0.94 2.098 2.094v6.303z"></path>
</symbol>
<symbol id="icon-phone-call" viewBox="0 0 32 32">
<path d="M2.269 13.613c0.706 0 1.275-0.569 1.275-1.275 0-4.662 3.8-8.463 8.463-8.463 0.706 0 1.275-0.569 1.275-1.275s-0.569-1.275-1.275-1.275c-6.075 0-11.012 4.938-11.012 11.012 0 0.706 0.569 1.275 1.275 1.275z"></path>
<path d="M12.006 6.244c-3.362 0-6.1 2.737-6.1 6.1 0 0.706 0.569 1.275 1.275 1.275s1.275-0.569 1.275-1.275c0-1.956 1.588-3.544 3.544-3.544 0.706 0 1.275-0.569 1.275-1.275 0.006-0.713-0.563-1.281-1.269-1.281z"></path>
<path d="M29.469 2.831c-1.063-1.069-2.381-1.769-3.825-2.038-2.137-0.394-4.488 0.288-5.781 1.744-4.494 5.050 0.319 9.694 0.35 9.719-1.269 2.875-5.1 6.719-7.906 7.944-0.031-0.031-4.588-4.806-9.7-0.381-2.525 2.181-2.456 6.9 0.263 9.631 0.925 0.938 2.031 1.525 3.275 1.75 2 0.363 4.025-0.256 5.756-0.894 7.706-2.844 15.131-9.762 18.413-18.456 1.1-2.912 1.863-6.3-0.844-9.019zM27.694 10.906c-4.313 10.844-12.881 15.225-16.738 16.781-4.144 1.675-5.581 0.331-6.112-0.2-1.638-1.65-1.856-4.313-0.269-5.706 2.919-2.55 5.7 0.175 6.138 0.856 0.313 0.481 0.925 0.681 1.481 0.538 4.006-1.025 9.869-6.881 11-10.988 0.156-0.556-0.075-1.131-0.525-1.494-0.706-0.575-3.369-3.1-0.837-6.181 0.681-0.831 3.431-1.944 5.663 0.287 1.306 1.3 1.413 3.050 0.2 6.106z"></path>
</symbol>
<symbol id="icon-farm" viewBox="0 0 32 32">
<path d="M6.908 18.377c-0.109 0.088-0.24 0.13-0.37 0.13-0.173 0-0.345-0.076-0.462-0.222l-0.081-0.101c-0.088-0.109-0.13-0.24-0.13-0.37-0-0.174 0.076-0.346 0.222-0.463 0.255-0.204 0.628-0.163 0.832 0.092l0.081 0.101c0.088 0.109 0.13 0.24 0.13 0.37 0 0.174-0.076 0.346-0.222 0.463zM8.592 21.424c0.117 0.146 0.289 0.222 0.463 0.222 0.13 0 0.26-0.042 0.37-0.13 0.146-0.117 0.222-0.289 0.222-0.463 0-0.13-0.042-0.26-0.13-0.37l-0.081-0.101c-0.204-0.255-0.577-0.297-0.832-0.092-0.146 0.117-0.222 0.289-0.222 0.463 0 0.13 0.042 0.26 0.13 0.37l0.081 0.101zM8.355 18.663c0.13 0 0.261-0.043 0.37-0.13 0.146-0.117 0.222-0.289 0.221-0.463-0-0.13-0.043-0.26-0.13-0.369l-0.081-0.101c-0.205-0.255-0.577-0.296-0.832-0.091-0.145 0.117-0.221 0.288-0.221 0.461-0 0.13 0.043 0.262 0.13 0.371l0.081 0.101c0.117 0.146 0.289 0.221 0.462 0.221zM6.854 20.273c0.117 0.146 0.289 0.222 0.462 0.222 0.13 0 0.261-0.043 0.37-0.13 0.146-0.117 0.222-0.289 0.222-0.463-0-0.13-0.043-0.26-0.13-0.369l-0.081-0.101c-0.205-0.255-0.577-0.296-0.832-0.091-0.146 0.117-0.222 0.289-0.222 0.463 0 0.13 0.043 0.26 0.13 0.369l0.081 0.101zM0.511 14.018c-0.804-1.003-0.642-2.473 0.361-3.277 0.496-0.398 1.115-0.566 1.717-0.499 0.065-0.602 0.365-1.17 0.861-1.567 1.003-0.804 2.473-0.642 3.277 0.361 0.676 0.844 0.669 2.017 0.053 2.847l1.045 1.303 0.469-0.376c0.129-0.104 0.296-0.148 0.46-0.123 0.231 0.035 0.465 0.086 0.696 0.151 0.315 0.089 0.498 0.416 0.409 0.731s-0.416 0.498-0.731 0.409c-0.101-0.028-0.202-0.053-0.303-0.075l-4.020 3.222c-0.007 0.656 0.128 1.349 0.396 2.018 0.122 0.304-0.026 0.648-0.33 0.77-0.072 0.029-0.147 0.043-0.22 0.043-0.235 0-0.457-0.141-0.55-0.372-0.368-0.92-0.53-1.885-0.468-2.791 0.011-0.165 0.091-0.318 0.22-0.422l0.469-0.376-1.045-1.304c-0.944 0.42-2.091 0.171-2.767-0.672zM3.047 13.455c0.109-0.088 0.24-0.13 0.37-0.13 0.174 0 0.345 0.076 0.462 0.222l1.367 1.706 1.654-1.326-1.367-1.706c-0.098-0.123-0.144-0.279-0.127-0.435s0.096-0.299 0.218-0.397c0.493-0.396 0.573-1.119 0.178-1.612s-1.119-0.573-1.612-0.178c-0.387 0.31-0.531 0.831-0.358 1.296 0.090 0.239 0.015 0.509-0.184 0.669s-0.479 0.174-0.693 0.034c-0.416-0.27-0.955-0.244-1.343 0.067-0.493 0.395-0.573 1.119-0.178 1.612s1.119 0.573 1.612 0.178zM12.734 14.463v1.025c0 0.327 0.265 0.592 0.592 0.592s0.592-0.265 0.592-0.592v-1.025c0-0.327-0.265-0.592-0.592-0.592s-0.592 0.265-0.592 0.592zM19.383 14.876c-0.432-0.332-0.885-0.504-1.346-0.512-0.006-0-0.013-0-0.019 0-0.784 0.013-1.564 0.52-2.197 1.428-0.954 1.37-1.591 3.696-0.961 5.491 0.085 0.244 0.314 0.396 0.559 0.396 0.065 0 0.131-0.011 0.196-0.034 0.309-0.108 0.471-0.446 0.363-0.755-0.475-1.353 0.042-3.311 0.816-4.422 0.4-0.574 0.849-0.909 1.235-0.92 0.199 0.006 0.412 0.095 0.634 0.266 0.259 0.199 0.631 0.151 0.83-0.108s0.151-0.631-0.108-0.83zM23.525 21.080c0.329 0.007 0.598-0.251 0.606-0.578 0.041-1.733-0.538-3.694-1.927-4.165-0.006-0.002-0.012-0.004-0.018-0.006-0.62-0.188-1.335-0.059-2.065 0.374-1.372 0.812-2.616 2.589-2.96 4.226-0.067 0.32 0.138 0.634 0.458 0.701 0.041 0.009 0.082 0.013 0.122 0.013 0.274 0 0.52-0.192 0.579-0.471 0.277-1.319 1.31-2.802 2.404-3.45 0.427-0.253 0.82-0.346 1.109-0.262 0.671 0.238 1.15 1.53 1.114 3.012-0.008 0.327 0.251 0.598 0.578 0.606zM5.876 7.265c0.083 0.040 0.171 0.060 0.258 0.060 0.22 0 0.431-0.123 0.533-0.334 0.024-0.050 0.318-0.802 0.343-0.86 1.388-2.659 4.048-4.422 7.299-4.837 3.389-0.432 6.787 0.734 8.869 3.043 0.219 0.243 0.593 0.262 0.836 0.043s0.262-0.593 0.043-0.836c-1.189-1.319-2.759-2.328-4.541-2.918-1.697-0.562-3.55-0.738-5.357-0.507-3.645 0.465-6.636 2.461-8.205 5.476-0.030 0.057-0.338 0.845-0.356 0.887-0.137 0.293-0.014 0.642 0.278 0.784zM18.182 12.395c0.225 0.237 0.215 0.612-0.023 0.837s-0.612 0.215-0.837-0.023c-0.211-0.223-0.48-0.373-0.778-0.433-0.276-0.056-0.475-0.299-0.475-0.58v-0.767h-2.608v0.767c0 0.282-0.199 0.525-0.475 0.58-0.685 0.138-1.181 0.744-1.181 1.442v6.689c0 0.327-0.265 0.592-0.592 0.592s-0.592-0.265-0.592-0.592v-6.689c0-1.091 0.673-2.058 1.656-2.459v-0.648c-0.282-0.242-0.461-0.601-0.461-1.001v-0.781c0-0.727 0.592-1.319 1.319-1.319h3.26c0.727 0 1.319 0.592 1.319 1.319v0.781c0 0.4-0.179 0.759-0.461 1.001v0.647c0.349 0.142 0.664 0.357 0.928 0.636zM16.531 9.329c0-0.073-0.062-0.134-0.134-0.134h-3.26c-0.073 0-0.135 0.062-0.135 0.134v0.781c0 0.055 0.035 0.104 0.084 0.124 0.002 0.001 0.003 0.001 0.005 0.002 0.014 0.005 0.030 0.008 0.045 0.008h3.26c0.015 0 0.030-0.003 0.044-0.008 0.002-0.001 0.005-0.002 0.007-0.003 0.048-0.021 0.083-0.069 0.083-0.124v-0.781zM29.302 21.274c-0.030 1.328-0.892 3.035-2.364 4.682-1.432 1.603-3.275 2.982-5.223 3.913v1.519c0 0.327-0.265 0.592-0.592 0.592h-10.815c-0.327 0-0.592-0.265-0.592-0.592v-1.519c-1.948-0.931-3.791-2.309-5.223-3.913-1.472-1.647-2.334-3.354-2.364-4.682-0.005-0.231 0.124-0.444 0.332-0.546s0.456-0.073 0.635 0.074c0.257 0.21 1.214 0.743 4.534 1.142 2.251 0.27 5.122 0.419 8.086 0.419s5.836-0.149 8.086-0.419c3.32-0.399 4.277-0.931 4.534-1.141 0.179-0.146 0.427-0.175 0.635-0.074s0.337 0.315 0.332 0.546zM20.531 30.083h-9.631v0.713h9.631v-0.713zM27.888 22.329c-3.291 1.152-10.56 1.219-12.172 1.219s-8.881-0.066-12.172-1.219c0.192 0.52 0.498 1.085 0.901 1.664 0.010 0.011 0.020 0.023 0.030 0.035 0.086 0.109 0.27 0.293 0.533 0.293 0.234 0 0.457-0.148 0.611-0.406 0.168-0.281 0.531-0.372 0.812-0.205s0.373 0.531 0.205 0.812c-0.254 0.425-0.622 0.732-1.041 0.881 0.432 0.461 0.914 0.915 1.44 1.349 0.185-0.21 0.499-0.266 0.748-0.117 0.281 0.168 0.372 0.531 0.205 0.812-0.005 0.008-0.009 0.016-0.014 0.023 0.761 0.54 1.59 1.028 2.464 1.428h10.56c0.82-0.376 1.6-0.828 2.322-1.329-0.027-0.040-0.053-0.081-0.079-0.123-0.168-0.281-0.076-0.644 0.204-0.812s0.644-0.076 0.812 0.204c0.004 0.006 0.008 0.013 0.012 0.019 0.579-0.468 1.108-0.962 1.577-1.463-0.41-0.152-0.771-0.455-1.021-0.874-0.168-0.281-0.076-0.644 0.205-0.812s0.644-0.076 0.812 0.205c0.154 0.258 0.376 0.406 0.611 0.406 0.193 0 0.343-0.099 0.439-0.189 0.451-0.628 0.791-1.241 0.998-1.802zM28.519 8.455c-0.282-0.166-0.645-0.073-0.811 0.209l-0.075 0.127c-0.056 0.095-0.082 0.198-0.082 0.301 0 0.203 0.104 0.4 0.291 0.51 0.095 0.056 0.198 0.082 0.301 0.082 0.203 0 0.4-0.104 0.51-0.291l0.075-0.127c0.056-0.095 0.082-0.198 0.082-0.301-0-0.203-0.104-0.4-0.291-0.51zM26.895 9.605c-0.282-0.166-0.645-0.071-0.811 0.21l-0.075 0.127c-0.055 0.094-0.082 0.197-0.082 0.299-0 0.203 0.104 0.401 0.292 0.511 0.094 0.055 0.198 0.082 0.299 0.082 0.203 0 0.401-0.104 0.511-0.292l0.075-0.127c0.055-0.094 0.082-0.197 0.082-0.299 0-0.203-0.105-0.401-0.292-0.511zM27.118 7.629c-0.282-0.166-0.645-0.073-0.811 0.209l-0.075 0.127c-0.056 0.095-0.082 0.198-0.082 0.301 0 0.203 0.104 0.4 0.291 0.51 0.095 0.056 0.198 0.082 0.3 0.082 0.203 0 0.4-0.104 0.51-0.291l0.075-0.127c0.056-0.095 0.082-0.198 0.082-0.301-0-0.202-0.104-0.4-0.291-0.51zM31.971 9.932c-0.718 2.187-1.823 4.575-3.196 6.904-0.585 0.993-1.207 1.955-1.849 2.86-0.115 0.163-0.298 0.25-0.483 0.25-0.119 0-0.238-0.035-0.342-0.109-0.267-0.189-0.33-0.559-0.14-0.826 0.622-0.878 1.226-1.812 1.795-2.776 1.118-1.896 2.051-3.828 2.73-5.646-0.162 0.060-0.329 0.129-0.502 0.208-0.019 0.010-0.038 0.019-0.058 0.027-1.64 0.765-3.7 2.356-5.748 4.476-0.059 0.171-0.12 0.343-0.182 0.516-0.111 0.308-0.45 0.468-0.758 0.357s-0.467-0.45-0.357-0.758c0.073-0.204 0.145-0.407 0.214-0.609 0.003-0.009 0.006-0.018 0.009-0.027 1.002-2.938 1.54-5.636 1.52-7.529-0.002-0.023-0.002-0.046-0.001-0.068-0.001-0.038-0.002-0.075-0.003-0.112-1.172 1.455-2.329 3.139-3.389 4.936-0.318 0.539-0.627 1.088-0.918 1.632-0.154 0.288-0.513 0.397-0.802 0.243s-0.397-0.513-0.243-0.801c0.299-0.558 0.616-1.122 0.942-1.675 1.355-2.298 2.869-4.421 4.378-6.138 0.145-0.165 0.369-0.236 0.582-0.185s0.381 0.216 0.436 0.428c0.037 0.142 0.068 0.292 0.095 0.449 1.729-1.463 3.147-1.928 4.137-1.345 1.274 0.751 1.176 2.794 0.734 4.705 0.268-0.077 0.524-0.13 0.766-0.158 0.2-0.023 0.399 0.057 0.527 0.214s0.167 0.367 0.104 0.559zM29.239 5.632c-0.441-0.26-1.599 0.072-3.432 1.826-0.015 1.51-0.322 3.393-0.895 5.48 1.521-1.378 2.998-2.433 4.299-3.079 0.713-2.508 0.536-3.928 0.028-4.227zM28.658 6.617c-0.282-0.166-0.645-0.072-0.811 0.21l-0.075 0.127c-0.056 0.095-0.082 0.199-0.082 0.301 0 0.202 0.105 0.4 0.292 0.51 0.094 0.056 0.198 0.082 0.3 0.082 0.203 0 0.4-0.104 0.511-0.292l0.075-0.127c0.056-0.095 0.082-0.199 0.082-0.301-0-0.202-0.104-0.4-0.292-0.51zM10.563 24.985c0.168-0.281 0.076-0.644-0.205-0.812s-0.644-0.076-0.812 0.205c-0.154 0.258-0.376 0.406-0.611 0.406s-0.457-0.148-0.61-0.406c-0.168-0.281-0.531-0.372-0.812-0.205s-0.373 0.531-0.205 0.812c0.367 0.615 0.976 0.983 1.627 0.983s1.26-0.367 1.627-0.983zM15.014 24.985c0.168-0.281 0.076-0.644-0.205-0.812s-0.644-0.076-0.812 0.205c-0.154 0.258-0.377 0.406-0.611 0.406s-0.457-0.148-0.611-0.406c-0.168-0.281-0.531-0.372-0.812-0.205s-0.372 0.531-0.205 0.812c0.367 0.615 0.976 0.983 1.627 0.983s1.26-0.367 1.627-0.983zM22.289 25.968c0.652 0 1.26-0.367 1.627-0.983 0.168-0.281 0.076-0.644-0.205-0.812s-0.644-0.076-0.812 0.205c-0.154 0.258-0.376 0.406-0.611 0.406s-0.457-0.148-0.611-0.406c-0.168-0.281-0.531-0.372-0.812-0.205s-0.372 0.531-0.205 0.812c0.367 0.615 0.976 0.983 1.627 0.983zM12.408 26.635c-0.281-0.168-0.644-0.076-0.812 0.205-0.154 0.258-0.377 0.406-0.611 0.406s-0.457-0.148-0.611-0.406c-0.168-0.281-0.531-0.372-0.812-0.205s-0.372 0.531-0.205 0.812c0.368 0.615 0.976 0.983 1.627 0.983s1.26-0.367 1.627-0.983c0.168-0.281 0.076-0.644-0.205-0.812zM15.002 26.84c-0.168-0.281-0.531-0.372-0.812-0.205s-0.372 0.531-0.205 0.812c0.367 0.615 0.976 0.983 1.627 0.983s1.26-0.367 1.627-0.983c0.168-0.281 0.076-0.644-0.205-0.812s-0.644-0.076-0.812 0.205c-0.154 0.258-0.376 0.406-0.611 0.406s-0.457-0.148-0.611-0.406zM17.838 25.968c0.652 0 1.26-0.367 1.627-0.983 0.168-0.281 0.076-0.644-0.205-0.812s-0.644-0.076-0.812 0.205c-0.154 0.258-0.377 0.406-0.611 0.406s-0.457-0.148-0.611-0.406c-0.168-0.281-0.531-0.372-0.812-0.205s-0.372 0.531-0.205 0.812c0.367 0.615 0.976 0.983 1.627 0.983zM18.817 26.635c-0.281 0.168-0.372 0.531-0.205 0.812 0.367 0.615 0.976 0.983 1.627 0.983s1.26-0.367 1.627-0.983c0.168-0.281 0.076-0.644-0.205-0.812s-0.644-0.076-0.812 0.205c-0.154 0.258-0.377 0.406-0.611 0.406s-0.457-0.148-0.611-0.406c-0.168-0.281-0.531-0.373-0.812-0.205z"></path>
</symbol>
<symbol id="icon-pc-monitor" viewBox="0 0 32 32">
<path stroke-linejoin="round" stroke-linecap="round" stroke-miterlimit="10" stroke-width="2" d="M3 6v15c0 1.1 0.9 2 2 2h22c1.1 0 2-0.9 2-2v-15c0-1.1-0.9-2-2-2h-22c-1.1 0-2 0.9-2 2z"></path>
<path stroke-linejoin="round" stroke-linecap="round" stroke-miterlimit="10" stroke-width="2" d="M3 19h26"></path>
<path stroke-linejoin="round" stroke-linecap="round" stroke-miterlimit="10" stroke-width="2" d="M9 29h14"></path>
<path stroke-linejoin="round" stroke-linecap="round" stroke-miterlimit="10" stroke-width="2" d="M13 23c0 2.1-0.7 4.6-1.8 6"></path>
<path stroke-linejoin="round" stroke-linecap="round" stroke-miterlimit="10" stroke-width="2" d="M20.8 29c-1.1-1.4-1.8-3.9-1.8-6"></path>
</symbol>
<symbol id="icon-instagram" viewBox="0 0 32 32">
<path d="M16 0c-4.349 0-4.891 0.021-6.593 0.093-1.709 0.084-2.865 0.349-3.885 0.745-1.052 0.412-1.948 0.959-2.833 1.849-0.891 0.885-1.443 1.781-1.849 2.833-0.396 1.020-0.661 2.176-0.745 3.885-0.077 1.703-0.093 2.244-0.093 6.593s0.021 4.891 0.093 6.593c0.084 1.704 0.349 2.865 0.745 3.885 0.412 1.052 0.959 1.948 1.849 2.833 0.885 0.891 1.781 1.443 2.833 1.849 1.020 0.391 2.181 0.661 3.885 0.745 1.703 0.077 2.244 0.093 6.593 0.093s4.891-0.021 6.593-0.093c1.704-0.084 2.865-0.355 3.885-0.745 1.052-0.412 1.948-0.959 2.833-1.849 0.891-0.885 1.443-1.776 1.849-2.833 0.391-1.020 0.661-2.181 0.745-3.885 0.077-1.703 0.093-2.244 0.093-6.593s-0.021-4.891-0.093-6.593c-0.084-1.704-0.355-2.871-0.745-3.885-0.412-1.052-0.959-1.948-1.849-2.833-0.885-0.891-1.776-1.443-2.833-1.849-1.020-0.396-2.181-0.661-3.885-0.745-1.703-0.077-2.244-0.093-6.593-0.093zM16 2.88c4.271 0 4.781 0.021 6.469 0.093 1.557 0.073 2.405 0.333 2.968 0.553 0.751 0.291 1.276 0.635 1.844 1.197 0.557 0.557 0.901 1.088 1.192 1.839 0.22 0.563 0.48 1.411 0.553 2.968 0.072 1.688 0.093 2.199 0.093 6.469s-0.021 4.781-0.099 6.469c-0.084 1.557-0.344 2.405-0.563 2.968-0.303 0.751-0.641 1.276-1.199 1.844-0.563 0.557-1.099 0.901-1.844 1.192-0.556 0.22-1.416 0.48-2.979 0.553-1.697 0.072-2.197 0.093-6.479 0.093s-4.781-0.021-6.48-0.099c-1.557-0.084-2.416-0.344-2.979-0.563-0.76-0.303-1.281-0.641-1.839-1.199-0.563-0.563-0.921-1.099-1.197-1.844-0.224-0.556-0.48-1.416-0.563-2.979-0.057-1.677-0.084-2.197-0.084-6.459 0-4.26 0.027-4.781 0.084-6.479 0.083-1.563 0.339-2.421 0.563-2.979 0.276-0.761 0.635-1.281 1.197-1.844 0.557-0.557 1.079-0.917 1.839-1.199 0.563-0.219 1.401-0.479 2.964-0.557 1.697-0.061 2.197-0.083 6.473-0.083zM16 7.787c-4.541 0-8.213 3.677-8.213 8.213 0 4.541 3.677 8.213 8.213 8.213 4.541 0 8.213-3.677 8.213-8.213 0-4.541-3.677-8.213-8.213-8.213zM16 21.333c-2.948 0-5.333-2.385-5.333-5.333s2.385-5.333 5.333-5.333c2.948 0 5.333 2.385 5.333 5.333s-2.385 5.333-5.333 5.333zM26.464 7.459c0 1.063-0.865 1.921-1.923 1.921-1.063 0-1.921-0.859-1.921-1.921 0-1.057 0.864-1.917 1.921-1.917s1.923 0.86 1.923 1.917z"></path>
</symbol>
<symbol id="icon-facebook" viewBox="0 0 32 32">
<path d="M29.456 0.731h-26.909c-1.409 0-2.547 1.137-2.547 2.544v25.451c0 1.402 1.138 2.543 2.547 2.543h26.909c1.402 0 2.544-1.139 2.544-2.543v-25.451c-0.001-1.407-1.143-2.544-2.544-2.544zM21.51 9.798c-0.662-0.387-1.186-0.693-1.846-0.693-0.646 0-1.197 0.161-1.479 0.433-0.282 0.269-0.422 0.791-0.422 1.562v1.14h3.451l-0.747 3.172h-2.704v10.541h-4.335v-10.541h-2.023v-3.172h2.025v-1.211c0-1.275 0.153-2.038 0.454-2.668 0.3-0.627 0.883-1.326 1.693-1.722 0.809-0.394 2.006-0.593 3.245-0.593 1.27 0 2.262 0.423 3.478 0.764l-0.79 2.987z"></path>
</symbol>
<symbol id="icon-vk" viewBox="0 0 32 32">
<path d="M20.097 2.667h-8.181c-7.472 0-9.25 1.778-9.25 9.236v8.181c0 7.472 1.764 9.25 9.236 9.25h8.181c7.472 0 9.25-1.764 9.25-9.236v-8.181c0-7.472-1.764-9.25-9.236-9.25zM24.194 21.694h-1.944c-0.736 0-0.958-0.597-2.278-1.917-1.153-1.111-1.639-1.25-1.931-1.25-0.403 0-0.514 0.111-0.514 0.667v1.75c0 0.472-0.153 0.75-1.389 0.75-2.504-0.173-4.657-1.537-5.912-3.524l-0.018-0.031c-1.454-1.798-2.524-3.967-3.050-6.341l-0.019-0.103c0-0.292 0.111-0.556 0.667-0.556h1.944c0.5 0 0.681 0.222 0.875 0.736 0.944 2.778 2.556 5.194 3.208 5.194 0.25 0 0.361-0.111 0.361-0.736v-2.861c-0.083-1.306-0.778-1.417-0.778-1.889 0.019-0.25 0.226-0.445 0.479-0.445 0.007 0 0.015 0 0.022 0.001l-0.001-0h3.056c0.417 0 0.555 0.208 0.555 0.708v3.861c0 0.417 0.181 0.555 0.306 0.555 0.25 0 0.444-0.139 0.903-0.597 0.943-1.143 1.745-2.453 2.349-3.868l0.040-0.104c0.119-0.328 0.427-0.558 0.789-0.558 0.020 0 0.041 0.001 0.061 0.002l-0.003-0h1.944c0.583 0 0.708 0.292 0.583 0.708-0.773 1.714-1.646 3.188-2.657 4.551l0.046-0.065c-0.208 0.319-0.292 0.486 0 0.861 0.194 0.292 0.875 0.861 1.333 1.403 0.65 0.649 1.198 1.4 1.616 2.228l0.023 0.049c0.167 0.542-0.111 0.819-0.667 0.819z"></path>
</symbol>
<symbol id="icon-people" viewBox="0 0 32 32">
<path stroke-linejoin="round" stroke-linecap="round" stroke-miterlimit="4" stroke-width="2.6667" d="M1.333 24c0-3 4-3 6-5 1-1-2-1-2-6 0-3.333 1.333-5 4-5s4 1.667 4 5c0 5-3 5-2 6 2 2 6 2 6 5M17.056 20.969c0.656-0.238 1.194-0.458 1.614-0.66 0.734-0.354 1.443-0.754 1.997-1.309 1-1-2-1-2-6 0-3.333 1.333-5 4-5s4 1.667 4 5c0 5-3 5-2 6 2 2 6 2 6 5"></path>
<path stroke-linejoin="round" stroke-linecap="round" stroke-miterlimit="4" stroke-width="2.6667" d="M16 21.333c0.488-0.165 0.84-0.286 1.056-0.364"></path>
</symbol>
<symbol id="icon-menu" viewBox="0 0 32 32">
<path d="M1 7h30c0.552 0 1-0.448 1-1s-0.448-1-1-1h-30c-0.552 0-1 0.448-1 1s0.448 1 1 1z"></path>
<path d="M31 15h-30c-0.552 0-1 0.448-1 1s0.448 1 1 1h30c0.552 0 1-0.448 1-1s-0.448-1-1-1z"></path>
<path d="M31 25h-30c-0.552 0-1 0.448-1 1s0.448 1 1 1h30c0.552 0 1-0.448 1-1s-0.448-1-1-1z"></path>
</symbol>
</defs>
</svg>
